<?xml version="1.0" encoding="utf-8"?>
<!-- Generator: Adobe Illustrator 22.1.0, SVG Export Plug-In . SVG Version: 6.00 Build 0)  -->
<svg version="1.1" id="Layer_1" xmlns="http://www.w3.org/2000/svg" xmlns:xlink="http://www.w3.org/1999/xlink" x="0px" y="0px"
	 viewBox="0 0 792 612" style="enable-background:new 0 0 792 612;" xml:space="preserve">
<style type="text/css">
	.st0{fill:#FFFFFF;}
	.st1{fill:none;stroke:#000000;stroke-width:3;stroke-miterlimit:10;}
	.st2{fill:#ED2424;}
	.st3{fill:#6C4C9F;}
	.st4{fill:#D1D3D4;}
	.st5{fill:none;}
	.st6{font-family:'Avenir-Medium';}
	.st7{font-size:18px;}
	.st8{fill:#73BBD8;}
</style>
<rect class="st0" width="792" height="612"/>
<line class="st1" x1="155.5" y1="72.1" x2="445.5" y2="72.1"/>
<line class="st1" x1="72.8" y1="519.8" x2="333.6" y2="417.6"/>
<line class="st1" x1="234.4" y1="519.8" x2="346.5" y2="419.4"/>
<line class="st1" x1="396" y1="519.8" x2="396" y2="434.3"/>
<line class="st1" x1="557.6" y1="519.8" x2="445.5" y2="423.3"/>
<line class="st1" x1="719.2" y1="519.8" x2="461.4" y2="419.3"/>
<line class="st1" x1="343.6" y1="362.4" x2="203.2" y2="236.1"/>
<line class="st1" x1="394.1" y1="236.1" x2="392.4" y2="348.8"/>
<line class="st1" x1="463.1" y1="355.1" x2="532.5" y2="277.1"/>
<line class="st1" x1="207.9" y1="215" x2="341.9" y2="87.4"/>
<line class="st1" x1="393.3" y1="215" x2="393.3" y2="87.4"/>
<line class="st1" x1="584.1" y1="215" x2="463.7" y2="87.4"/>
<g>
	<path class="st2" d="M234.4,588.9L234.4,588.9c-27.3,0-49.5-22.2-49.5-49.5v0c0-27.3,22.2-49.5,49.5-49.5h0
		c27.3,0,49.5,22.2,49.5,49.5v0C283.9,566.7,261.8,588.9,234.4,588.9z"/>
	<path class="st2" d="M396,588.9L396,588.9c-27.3,0-49.5-22.2-49.5-49.5v0c0-27.3,22.2-49.5,49.5-49.5h0c27.3,0,49.5,22.2,49.5,49.5
		v0C445.5,566.7,423.3,588.9,396,588.9z"/>
	<path class="st2" d="M557.6,588.9L557.6,588.9c-27.3,0-49.5-22.2-49.5-49.5v0c0-27.3,22.2-49.5,49.5-49.5h0
		c27.3,0,49.5,22.2,49.5,49.5v0C607.1,566.7,584.9,588.9,557.6,588.9z"/>
	<path class="st2" d="M719.2,588.9L719.2,588.9c-27.3,0-49.5-22.2-49.5-49.5v0c0-27.3,22.2-49.5,49.5-49.5h0
		c27.3,0,49.5,22.2,49.5,49.5v0C768.7,566.7,746.5,588.9,719.2,588.9z"/>
	<path class="st2" d="M72.8,588.9L72.8,588.9c-27.3,0-49.5-22.2-49.5-49.5v0c0-27.3,22.2-49.5,49.5-49.5h0
		c27.3,0,49.5,22.2,49.5,49.5v0C122.3,566.7,100.2,588.9,72.8,588.9z"/>
</g>
<path class="st3" d="M456.1,434.3H335.9c-8.3,0-15-6.7-15-15V361c0-8.3,6.7-15,15-15h120.1c8.3,0,15,6.7,15,15v58.3
	C471.1,427.6,464.3,434.3,456.1,434.3z"/>
<path class="st4" d="M259.5,277.1H156.4c-11,0-20-9-20-20v-42c0-11,9-20,20-20h103.1c11,0,20,9,20,20v42
	C279.5,268.2,270.5,277.1,259.5,277.1z"/>
<path class="st4" d="M447.6,277.1H344.4c-11,0-20-9-20-20v-42c0-11,9-20,20-20h103.1c11,0,20,9,20,20v42
	C467.6,268.2,458.6,277.1,447.6,277.1z"/>
<path class="st4" d="M635.6,277.1H532.5c-11,0-20-9-20-20v-42c0-11,9-20,20-20h103.1c11,0,20,9,20,20v42
	C655.6,268.2,646.7,277.1,635.6,277.1z"/>
<line class="st5" x1="-218.1" y1="311.3" x2="-153.7" y2="439.9"/>
<rect x="47" y="531.8" class="st5" width="51.7" height="15.2"/>
<text transform="matrix(1 0 0 1 47.8239 545.3783)" class="st0 st6 st7">Player</text>
<rect x="208.6" y="531.8" class="st5" width="51.7" height="15.2"/>
<text transform="matrix(1 0 0 1 209.4112 545.3783)" class="st0 st6 st7">Player</text>
<rect x="370.1" y="531.8" class="st5" width="51.7" height="15.2"/>
<text transform="matrix(1 0 0 1 370.9985 545.3783)" class="st0 st6 st7">Player</text>
<rect x="533.4" y="531.8" class="st5" width="51.7" height="15.2"/>
<text transform="matrix(1 0 0 1 534.2211 545.3783)" class="st0 st6 st7">Player</text>
<rect x="696.6" y="531.8" class="st5" width="51.7" height="15.2"/>
<text transform="matrix(1 0 0 1 697.4436 545.3783)" class="st0 st6 st7">Player</text>
<rect x="337.8" y="381.7" class="st5" width="116.3" height="15.6"/>
<text transform="matrix(1 0 0 1 338.4637 395.3542)" class="st0 st6 st7">Load Balancer</text>
<rect x="164.4" y="216.6" class="st5" width="77.6" height="39.1"/>
<text transform="matrix(1 0 0 1 165.5246 230.2068)"><tspan x="0" y="0" class="st6 st7">Socket.io</tspan><tspan x="11.5" y="21.6" class="st6 st7">Server</tspan></text>
<rect x="357.2" y="216.6" class="st5" width="77.6" height="39.1"/>
<text transform="matrix(1 0 0 1 358.2992 230.2068)"><tspan x="0" y="0" class="st6 st7">Socket.io</tspan><tspan x="11.5" y="21.6" class="st6 st7">Server</tspan></text>
<rect x="551.5" y="216.6" class="st5" width="77.6" height="39.1"/>
<text transform="matrix(1 0 0 1 552.5916 230.2068)"><tspan x="0" y="0" class="st6 st7">Socket.io</tspan><tspan x="11.5" y="21.6" class="st6 st7">Server</tspan></text>
<path class="st8" d="M469.3,114.3H317.2c-11,0-20-9-20-20V56.1c0-11,9-20,20-20h152.1c11,0,20,9,20,20v38.2
	C489.3,105.4,480.3,114.3,469.3,114.3z"/>
<path class="st8" d="M198.4,111.2H46.3c-11,0-20-9-20-20V53c0-11,9-20,20-20h152.1c11,0,20,9,20,20v38.2
	C218.4,102.2,209.4,111.2,198.4,111.2z"/>
<rect x="341.9" y="68.5" class="st5" width="99.2" height="18.9"/>
<text transform="matrix(1 0 0 1 369.324 82.0886)" class="st6 st7">Redis</text>
<rect x="61.7" y="66.4" class="st5" width="122.7" height="14.3"/>
<text transform="matrix(1 0 0 1 74.0613 80.0536)" class="st6 st7">PostgreSQL</text>
</svg>
